<svg width="52" height="51" viewBox="0 0 52 51" fill="none" xmlns="http://www.w3.org/2000/svg">
<path d="M26 49.5C12.4414 49.5 1.5 38.7275 1.5 25.5C1.5 12.2725 12.4414 1.5 26 1.5C39.5586 1.5 50.5 12.2725 50.5 25.5C50.5 38.7275 39.5586 49.5 26 49.5Z" fill="#33CC95" stroke="#33CC95" stroke-width="3"/>
<path d="M29.3965 31.3203C29.3965 30.3242 29.0801 29.5039 28.4473 28.8594C27.8145 28.2031 26.7598 27.6172 25.2832 27.1016C23.8066 26.5742 22.6582 26.0879 21.8379 25.6426C19.1074 24.1777 17.7422 22.0098 17.7422 19.1387C17.7422 17.1934 18.334 15.5937 19.5176 14.3398C20.7012 13.0859 22.3066 12.3418 24.334 12.1074V8.27539H27.1465V12.1426C29.1855 12.4355 30.7617 13.3027 31.875 14.7441C32.9883 16.1738 33.5449 18.0371 33.5449 20.334H29.291C29.291 18.8574 28.957 17.6973 28.2891 16.8535C27.6328 15.998 26.7363 15.5703 25.5996 15.5703C24.4746 15.5703 23.5957 15.875 22.9629 16.4844C22.3301 17.0938 22.0137 17.9668 22.0137 19.1035C22.0137 20.123 22.3242 20.9434 22.9453 21.5645C23.5781 22.1738 24.6445 22.7539 26.1445 23.3047C27.6445 23.8555 28.8223 24.3652 29.6777 24.834C30.5332 25.3027 31.2539 25.8418 31.8398 26.4512C32.4258 27.0488 32.877 27.7402 33.1934 28.5254C33.5098 29.3105 33.668 30.2305 33.668 31.2852C33.668 33.2656 33.0586 34.8711 31.8398 36.1016C30.6328 37.332 28.9453 38.0586 26.7773 38.2812V41.709H23.9824V38.2988C21.6621 38.041 19.875 37.209 18.6211 35.8027C17.3789 34.3965 16.7578 32.5332 16.7578 30.2129H21.0293C21.0293 31.6895 21.3984 32.832 22.1367 33.6406C22.8867 34.4492 23.9414 34.8535 25.3008 34.8535C26.6367 34.8535 27.6504 34.5312 28.3418 33.8867C29.0449 33.2422 29.3965 32.3867 29.3965 31.3203Z" fill="white"/>
</svg>
