<svg width="215" height="51" viewBox="0 0 215 51" fill="none" xmlns="http://www.w3.org/2000/svg">
<path d="M26 49.5C12.4414 49.5 1.5 38.7275 1.5 25.5C1.5 12.2725 12.4414 1.5 26 1.5C39.5586 1.5 50.5 12.2725 50.5 25.5C50.5 38.7275 39.5586 49.5 26 49.5Z" fill="#33CC95" stroke="#33CC95" stroke-width="3"/>
<path d="M63.196 35V17.36H65.716L66.364 20.744L65.14 20.168C66.244 18.968 67.312 18.14 68.344 17.684C69.4 17.228 70.504 17 71.656 17C72.52 17 73.348 17.144 74.14 17.432C74.956 17.72 75.676 18.212 76.3 18.908C76.948 19.604 77.464 20.576 77.848 21.824L76.948 21.428C77.476 20.06 78.28 18.98 79.36 18.188C80.464 17.396 81.94 17 83.788 17C85.252 17 86.488 17.276 87.496 17.828C88.504 18.38 89.26 19.22 89.764 20.348C90.292 21.452 90.556 22.868 90.556 24.596V35H87.316V24.632C87.316 22.976 86.992 21.776 86.344 21.032C85.696 20.264 84.64 19.88 83.176 19.88C82.144 19.88 81.316 20.036 80.692 20.348C80.068 20.66 79.6 21.068 79.288 21.572C78.976 22.076 78.76 22.616 78.64 23.192C78.544 23.744 78.496 24.272 78.496 24.776V35H75.256V25.28C75.256 23.84 75.076 22.736 74.716 21.968C74.38 21.176 73.9 20.636 73.276 20.348C72.652 20.036 71.932 19.88 71.116 19.88C69.94 19.88 68.884 20.144 67.948 20.672C67.012 21.2 66.376 22.028 66.04 23.156L66.436 21.392V35H63.196ZM95.6061 43.712L99.6741 34.208L92.3301 17.36H95.9301L101.438 30.464L106.406 17.36H110.006L99.2061 43.712H95.6061ZM110.998 35L114.382 9.8H117.298L123.922 22.292L130.474 9.8H133.426L136.774 35H133.174L130.618 14.444L131.518 14.588L123.958 29.024L116.254 14.588L117.154 14.444L114.598 35H110.998ZM147.963 35.36C146.115 35.36 144.531 34.952 143.211 34.136C141.915 33.32 140.919 32.216 140.223 30.824C139.551 29.432 139.215 27.884 139.215 26.18C139.215 24.476 139.551 22.928 140.223 21.536C140.919 20.144 141.915 19.04 143.211 18.224C144.531 17.408 146.115 17 147.963 17C149.811 17 151.383 17.408 152.679 18.224C153.975 19.04 154.971 20.144 155.667 21.536C156.363 22.928 156.711 24.476 156.711 26.18C156.711 27.884 156.363 29.432 155.667 30.824C154.971 32.216 153.975 33.32 152.679 34.136C151.383 34.952 149.811 35.36 147.963 35.36ZM147.963 32.48C149.715 32.48 151.059 31.928 151.995 30.824C152.931 29.72 153.399 28.172 153.399 26.18C153.399 24.188 152.931 22.64 151.995 21.536C151.059 20.432 149.715 19.88 147.963 19.88C146.211 19.88 144.867 20.432 143.931 21.536C142.995 22.64 142.527 24.188 142.527 26.18C142.527 28.172 142.995 29.72 143.931 30.824C144.867 31.928 146.211 32.48 147.963 32.48ZM160.051 35V17.36H162.571L163.219 20.744L161.959 20.204C163.159 18.884 164.323 18.02 165.451 17.612C166.579 17.204 167.683 17 168.763 17C171.331 17 173.167 17.744 174.271 19.232C175.399 20.72 175.963 22.736 175.963 25.28V35H172.723V25.28C172.723 23.408 172.375 22.04 171.679 21.176C170.983 20.312 169.795 19.88 168.115 19.88C166.939 19.88 165.847 20.144 164.839 20.672C163.855 21.2 163.207 22.028 162.895 23.156L163.291 21.176V35H160.051ZM188.621 35.36C186.557 35.36 184.805 34.94 183.365 34.1C181.949 33.236 180.881 32.108 180.161 30.716C179.441 29.3 179.081 27.74 179.081 26.036C179.081 24.38 179.417 22.868 180.089 21.5C180.785 20.132 181.769 19.04 183.041 18.224C184.337 17.408 185.897 17 187.721 17C189.185 17 190.481 17.288 191.609 17.864C192.761 18.44 193.661 19.292 194.309 20.42C194.981 21.524 195.317 22.868 195.317 24.452C195.317 24.716 195.305 24.992 195.281 25.28C195.257 25.568 195.221 25.868 195.173 26.18H182.393C182.561 27.812 182.957 29.084 183.581 29.996C184.205 30.908 184.985 31.556 185.921 31.94C186.857 32.3 187.889 32.48 189.017 32.48C189.833 32.48 190.685 32.396 191.573 32.228C192.461 32.06 193.301 31.796 194.093 31.436L194.525 33.992C193.853 34.304 193.013 34.616 192.005 34.928C191.021 35.216 189.893 35.36 188.621 35.36ZM182.681 23.948H191.969C191.969 23.108 191.813 22.388 191.501 21.788C191.189 21.188 190.709 20.72 190.061 20.384C189.437 20.048 188.633 19.88 187.649 19.88C186.209 19.88 185.093 20.24 184.301 20.96C183.533 21.68 182.993 22.676 182.681 23.948ZM199.739 43.712L203.807 34.208L196.463 17.36H200.063L205.571 30.464L210.539 17.36H214.139L203.339 43.712H199.739Z" fill="white"/>
<path d="M29.3965 31.3203C29.3965 30.3242 29.0801 29.5039 28.4473 28.8594C27.8145 28.2031 26.7598 27.6172 25.2832 27.1016C23.8066 26.5742 22.6582 26.0879 21.8379 25.6426C19.1074 24.1777 17.7422 22.0098 17.7422 19.1387C17.7422 17.1934 18.334 15.5937 19.5176 14.3398C20.7012 13.0859 22.3066 12.3418 24.334 12.1074V8.27539H27.1465V12.1426C29.1855 12.4355 30.7617 13.3027 31.875 14.7441C32.9883 16.1738 33.5449 18.0371 33.5449 20.334H29.291C29.291 18.8574 28.957 17.6973 28.2891 16.8535C27.6328 15.998 26.7363 15.5703 25.5996 15.5703C24.4746 15.5703 23.5957 15.875 22.9629 16.4844C22.3301 17.0938 22.0137 17.9668 22.0137 19.1035C22.0137 20.123 22.3242 20.9434 22.9453 21.5645C23.5781 22.1738 24.6445 22.7539 26.1445 23.3047C27.6445 23.8555 28.8223 24.3652 29.6777 24.834C30.5332 25.3027 31.2539 25.8418 31.8398 26.4512C32.4258 27.0488 32.877 27.7402 33.1934 28.5254C33.5098 29.3105 33.668 30.2305 33.668 31.2852C33.668 33.2656 33.0586 34.8711 31.8398 36.1016C30.6328 37.332 28.9453 38.0586 26.7773 38.2812V41.709H23.9824V38.2988C21.6621 38.041 19.875 37.209 18.6211 35.8027C17.3789 34.3965 16.7578 32.5332 16.7578 30.2129H21.0293C21.0293 31.6895 21.3984 32.832 22.1367 33.6406C22.8867 34.4492 23.9414 34.8535 25.3008 34.8535C26.6367 34.8535 27.6504 34.5312 28.3418 33.8867C29.0449 33.2422 29.3965 32.3867 29.3965 31.3203Z" fill="white"/>
</svg>
